<svg width="286" height="210" viewBox="0 0 286 210" fill="none" xmlns="http://www.w3.org/2000/svg">
<g clip-path="url(#clip0)">
<path d="M122.081 109.875C122.081 109.875 141.673 109.875 150.103 105.216C150.103 105.216 112.792 134.723 60.8064 209.733C60.8064 209.733 213.72 26.7891 251.499 58.0822C251.499 58.0822 253.216 58.9363 254.153 54.4326C254.153 54.4326 261.334 20.5771 229.487 15.9181C229.487 15.9181 227.848 -9.78414 176.487 4.03761C134.024 15.3745 117.632 35.1754 42.6191 35.4083C42.6191 35.4083 76.4177 45.6581 124.032 30.9046C157.597 20.4995 190.849 2.87285 215.749 9.62843C215.749 9.62843 223.867 12.1909 223.711 18.6359C223.711 18.6359 223.711 19.3347 225.662 19.5677C225.662 19.5677 249.392 22.0525 247.908 47.9877C247.908 47.9877 226.599 39.4461 181.638 73.6899C181.638 73.6899 179.609 37.2719 124.267 47.9877C93.9805 53.8114 70.4854 56.4515 43.0094 45.6581L45.8195 49.0748C45.8195 49.0748 70.1732 61.4211 107.406 56.6845C147.059 51.6372 162.436 53.0349 168.134 70.0403C173.989 87.5116 151.664 103.43 132.228 103.119C132.306 103.197 130.199 104.983 122.081 109.875Z" fill="#F8B800"/>
<path d="M48.0833 61.8096C48.0833 61.8096 65.8802 71.05 111.543 64.4497C141.361 60.179 155.489 59.0919 159.704 71.5936C165.403 88.599 140.424 96.2863 140.424 96.2863C140.424 96.2863 163.295 75.709 130.823 72.2924C119.037 71.05 114.666 71.4383 99.991 71.8265C73.842 72.5254 54.9522 66.9345 50.8933 65.2262C50.8933 65.2262 49.098 63.1297 48.0833 61.8096Z" fill="#F8B800"/>
<path d="M218.715 17.7042C213.876 21.8973 213.563 21.9749 201.855 20.0337C201.777 20.0337 201.699 20.0337 201.621 20.0337C200.918 19.8784 200.216 19.8007 199.435 19.6454C185.307 17.2383 179.843 24.1491 179.843 24.1491C181.326 24.3821 183.355 25.0033 185.229 26.0904C187.024 27.1775 185.307 27.4881 185.307 27.4881L164.31 33.3119C162.592 33.7001 162.827 34.6319 163.451 34.7096C164.075 34.8649 166.651 34.3213 166.651 34.3213L191.161 29.4293C194.908 33.7778 199.982 33.6225 199.982 33.6225L200.216 31.5259C196.313 30.9047 194.44 28.5752 193.815 26.401C193.191 24.5374 193.581 22.9067 193.581 22.9067C194.518 22.8291 196.079 22.7514 197.172 22.7514C197.015 23.1397 196.937 23.6056 196.937 24.0715C196.937 26.3233 198.811 28.1869 201.074 28.1869C203.338 28.1869 205.211 26.3233 205.211 24.0715C205.211 23.8385 205.211 23.6056 205.133 23.3726C207.085 23.6832 208.178 23.9938 208.178 23.9938C208.49 28.6528 203.884 30.8271 203.884 30.8271L204.821 32.613C210.675 29.8176 211.534 24.7703 211.534 24.7703C215.671 25.7021 219.262 18.1701 219.262 18.1701C219.886 16.7724 218.715 17.7042 218.715 17.7042Z" fill="#F8B800"/>
<path d="M23.651 197.154C20.919 197.93 18.109 198.396 15.2989 198.396C7.18104 198.396 0.624268 193.815 0.624268 185.196C0.624268 176.809 7.10298 171.685 15.1428 171.685C17.1723 171.685 19.2798 171.918 21.2313 172.461V177.897H21.0751C19.7482 176.654 17.3284 175.8 15.2989 175.8C10.2252 175.8 8.03966 179.372 8.03966 184.031C8.03966 188.845 9.75691 194.358 15.377 194.358C15.9234 194.358 16.4698 194.358 16.9381 194.203V188.457C16.9381 186.671 16.8601 185.739 15.4551 184.652V184.497H23.651V197.154V197.154Z" fill="white"/>
<path d="M32.7058 183.876C32.7058 179.838 34.7353 175.489 39.3406 175.489C44.7265 175.489 46.4438 181.857 46.4438 186.283C46.4438 188.224 46.1316 190.165 44.9607 191.718C43.7118 193.427 41.8384 194.436 39.7309 194.436C37.4673 194.436 35.5158 192.961 34.423 191.097C33.4864 189.156 32.7058 186.205 32.7058 183.876ZM25.1343 184.963C25.1343 193.194 31.3788 198.319 39.3406 198.319C47.3024 198.319 54.0153 193.349 54.0153 184.885C54.0153 176.344 48.0049 171.607 39.809 171.607C31.9252 171.607 25.1343 176.654 25.1343 184.963Z" fill="white"/>
<path d="M63.3821 193.427C64.631 194.048 66.1141 194.126 67.5191 194.126C69.7047 194.126 71.3439 193.66 73.0611 192.418L71.578 197.853H54.4836V197.698C56.4351 196.455 56.1228 194.281 56.1228 192.262V177.819C56.1228 175.8 56.4351 173.549 54.4836 172.384V172.229H65.0213V172.384C63.0699 173.626 63.3821 175.8 63.3821 177.897V193.427Z" fill="white"/>
<path d="M82.1939 176.654C83.0525 176.499 83.9111 176.343 84.7697 176.343C89.6093 176.343 91.0143 181.158 91.0143 185.118C91.0143 187.214 90.7021 189.311 89.6093 191.097C88.2823 193.271 86.7212 193.97 84.3014 193.97C83.5989 193.97 82.8964 193.892 82.1939 193.659V176.654ZM74.9346 192.262C74.9346 194.281 75.2468 196.532 73.2954 197.697V197.853H82.1158C86.487 197.853 90.3898 198.008 93.9804 195.212C97.0247 192.805 98.5858 188.923 98.5858 185.196C98.5858 181.002 96.7905 176.965 93.2779 174.557C89.7654 172.073 85.7845 172.306 81.5694 172.306H73.2954V172.461C73.9979 172.849 74.6224 173.703 74.7785 174.48C75.0127 175.645 75.0127 179.139 75.0127 180.459V192.262H74.9346Z" fill="white"/>
<path d="M107.874 193.504C109.201 194.048 110.606 194.125 112.011 194.125C114.197 194.125 116.226 193.737 117.71 191.951H117.944L116.383 197.853H99.054V197.697C101.005 196.455 100.693 194.281 100.693 192.262V177.741C100.693 175.722 101.005 173.47 99.054 172.306V172.15H112.714C113.338 172.15 113.963 172.15 114.353 171.995H114.431V177.664H114.353C113.26 175.8 111.075 176.033 109.123 176.033H107.874V182.323H111.543C112.089 182.323 112.636 182.323 113.026 182.167H113.26V187.603H113.026C112.48 186.05 110.684 186.205 109.201 186.205H107.874V193.504V193.504Z" fill="white"/>
<path d="M141.985 198.629C140.58 198.629 138.473 197.62 137.302 197.076C134.414 195.601 133.633 194.281 131.76 191.796L124.266 181.857H124.11V192.107C124.11 194.358 124.11 196.067 125.827 197.697V197.853H118.256V197.697C119.973 196.067 120.051 194.358 120.051 192.107V178.673C120.051 175.645 119.895 174.635 117.788 172.306V172.15H125.906V172.306L137.926 187.913V177.819C137.926 175.567 137.926 173.859 136.209 172.228V172.073H143.702V172.228C141.985 173.859 141.985 175.567 141.985 177.819V198.629V198.629Z" fill="white"/>
<path d="M165.714 192.262C165.714 194.281 165.48 196.533 167.354 197.698V197.853H156.816V197.698C158.767 196.455 158.455 194.281 158.455 192.262V177.819C158.455 175.8 158.767 173.549 156.816 172.384V172.229H167.354V172.384C165.402 173.626 165.714 175.8 165.714 177.819V182.245H172.74V177.819C172.74 175.8 173.052 173.549 171.1 172.384V172.229H181.638V172.384C179.687 173.626 179.999 175.8 179.999 177.819V192.262C179.999 194.281 179.687 196.533 181.638 197.698V197.853H171.1V197.698C173.052 196.455 172.74 194.281 172.74 192.262V186.128H165.714V192.262Z" fill="white"/>
<path d="M196.313 186.516H191.005L193.581 178.828H193.659L196.313 186.516ZM197.562 190.088L198.889 193.892C199.123 194.514 199.201 194.747 199.201 195.368C199.201 196.61 198.498 197.154 197.562 197.775V197.93H209.348V197.853V197.775C207.085 195.678 206.928 194.824 205.992 192.339L198.576 172.306H188.975V172.461C189.756 173.005 190.458 173.703 190.458 174.713C190.458 175.567 189.834 177.042 189.6 177.819L184.214 193.349C183.511 195.368 182.965 196.455 181.482 197.853V198.008H189.522V197.853C188.819 197.231 188.117 196.765 188.117 195.678C188.117 194.824 188.585 193.659 188.819 192.883L189.756 190.243H197.562V190.088Z" fill="white"/>
<path d="M219.027 198.241C217.622 198.086 216.061 197.387 214.89 196.688C212.392 195.213 211.846 193.737 211.066 191.097L206.772 176.576C206.226 174.79 205.602 173.47 204.197 172.306V172.15H212.705V172.228L217.466 189.932H217.622L220.354 179.294C220.588 178.518 220.979 177.12 220.979 176.344C220.979 175.179 220.12 173.082 219.183 172.306V172.15H227.379V172.306C227.301 172.461 227.223 172.772 227.223 173.005C227.223 174.48 227.692 175.8 228.16 177.198L231.907 189.932H232.063L235.341 178.362C235.575 177.431 236.044 176.188 236.044 175.256C236.044 174.092 235.419 173.082 234.717 172.306V172.15H241.352V172.306L233.312 198.319C231.907 198.008 230.502 197.387 229.253 196.688C227.223 195.601 226.599 194.281 225.974 192.184L223.086 182.788L219.027 198.241Z" fill="white"/>
<path d="M264.769 195.135C265.393 196.145 266.174 197.077 267.032 197.775V197.931C257.978 197.931 257.431 197.931 254.855 193.505L250.796 186.516V192.34C250.796 194.359 250.484 196.611 252.436 197.775V197.931H241.898V197.853V197.775C243.849 196.533 243.537 194.359 243.537 192.34V177.819C243.537 175.723 243.849 173.549 241.898 172.384V172.229H252.436V172.384C250.484 173.626 250.796 175.8 250.796 177.819V183.798L255.714 177.586C256.417 176.732 257.509 175.567 257.509 174.48C257.509 173.471 256.651 172.772 255.948 172.384V172.229H265.549V172.384L256.807 182.634L264.769 195.135Z" fill="white"/>
<path d="M266.252 191.331C268.437 193.117 271.638 194.359 274.448 194.359C276.243 194.359 278.585 193.738 278.585 191.564C278.585 186.827 266.642 187.759 266.642 179.062C266.642 176.81 267.735 174.713 269.53 173.393C271.56 171.996 273.979 171.53 276.321 171.53C278.507 171.53 280.848 171.918 282.878 172.695V177.276C281.239 176.189 279.287 175.412 277.336 175.412C275.775 175.412 273.901 176.111 273.901 177.897C273.901 179.761 276.165 180.537 277.648 181.158C279.521 182.013 281.317 182.711 282.878 184.109C284.751 185.74 285.766 187.526 285.766 190.011C285.766 192.573 284.673 194.825 282.644 196.3C280.302 198.009 277.804 198.319 275.072 198.319C272.496 198.319 269.92 197.853 267.501 196.921L266.252 191.331Z" fill="white"/>
<path d="M14.2063 159.726L14.4405 162.599C17.5628 162.988 21.3876 162.988 24.9782 162.988C29.0371 162.988 33.0961 162.832 36.9989 161.668C37.3111 160.969 37.5453 160.115 37.7795 159.183L39.4967 152.738L41.9165 152.893C41.6823 153.98 41.4481 155.922 41.1359 158.018L40.2773 166.094C37.8575 166.482 33.0961 166.404 28.7249 166.482C24.5098 166.249 20.2948 166.094 15.9236 166.094C11.5524 166.094 7.41539 166.249 3.04421 166.482V164.152C6.55677 163.531 7.10317 161.279 7.10317 155.223V122.144C7.10317 116.165 7.18122 115.621 0 115.233V112.903C3.35644 113.136 6.86899 113.292 10.5377 113.292C14.2063 113.292 17.7189 113.136 21.3095 112.903V115.233C14.1283 115.621 14.2063 116.165 14.2063 122.144V159.726V159.726Z" fill="white"/>
<path d="M84.4573 156.077C85.394 158.562 86.4087 161.047 88.2821 162.91C89.1407 163.687 90.7018 164.153 92.4191 164.23V166.56C89.1407 166.327 85.8623 166.171 82.5059 166.171C79.1494 166.171 75.871 166.327 72.5927 166.56V164.23C74.5441 164.153 76.5736 164.075 78.2127 163.143C79.2275 162.6 79.3055 161.357 78.7591 160.037L74.2319 148.855H52.8443C51.9857 150.952 47.8487 160.037 47.8487 161.745C47.8487 164.308 51.5173 163.92 54.1713 164.308V166.637C51.3612 166.404 48.4731 166.249 45.585 166.249C42.6969 166.249 39.8088 166.404 36.9988 166.637V164.308C41.2138 163.454 41.6822 164.153 43.4775 160.192L47.1462 152.272L57.2155 129.132C59.6352 123.697 62.055 118.106 64.0064 112.593H66.4262L84.4573 156.077ZM72.7488 145.516L63.382 122.687L54.0151 145.516H72.7488Z" fill="white"/>
<path d="M97.1028 148.856C96.6345 159.727 102.645 162.911 112.402 162.911C116.929 162.911 122.393 161.668 125.125 157.63C127.467 154.214 128.091 149.477 128.091 144.818V120.436C128.091 116.01 126.764 115.311 122.159 115.311L120.988 115.233V112.904C123.954 113.137 126.999 113.292 129.965 113.292C132.931 113.292 135.975 113.525 138.863 113.292V115.156L137.692 115.233C133.009 115.233 131.526 115.932 131.526 120.358V148.623C131.526 152.816 130.511 156.155 128.247 159.805C126.764 162.289 123.174 165.007 120.442 165.939C117.632 166.948 113.339 167.57 110.372 167.57C103.582 167.57 95.4636 166.483 91.873 159.649C89.9997 156.233 89.9997 153.437 89.9997 149.632V122.067C89.9997 116.087 90.0777 115.544 82.8965 115.156V112.826C86.2529 113.059 89.7655 113.214 93.4342 113.214C97.1028 113.214 100.615 113.059 104.206 112.826V115.156C97.0248 115.544 97.1028 116.087 97.1028 122.067V148.856V148.856Z" fill="white"/>
<path d="M170.398 166.482C169.227 164.851 168.368 163.454 167.354 162.211L149.557 138.761L149.869 137.596C152.211 137.751 154.474 137.674 156.738 137.286C161.968 136.354 166.417 132.238 166.417 126.57C166.417 118.261 160.407 115.854 154.943 115.854C152.367 115.854 149.479 116.242 147.449 116.864C146.981 118.184 146.981 119.814 146.981 122.144V157.319C146.981 163.298 146.903 163.842 154.084 164.23V166.56C150.493 166.327 146.981 166.171 143.312 166.171C139.644 166.171 136.131 166.327 132.775 166.56V164.23C139.956 163.842 139.878 163.298 139.878 157.319V122.144C139.878 116.165 139.956 115.621 132.775 115.233L132.697 113.369C136.912 113.602 141.283 113.292 145.654 113.292C150.025 113.292 154.396 113.136 158.767 112.903C169.071 112.36 173.832 118.106 173.832 124.551C173.832 132.937 166.495 137.907 159.236 139.304L176.174 161.978C177.345 163.454 178.906 163.92 180.467 164.153V166.482H170.398Z" fill="white"/>
<path d="M175.237 166.483V164.153C182.419 163.765 182.34 163.221 182.34 157.242V122.067C182.34 116.087 182.419 115.544 175.237 115.156V112.826C178.594 113.059 182.106 113.214 185.775 113.214C189.444 113.214 192.956 113.059 196.547 112.826V115.156C189.366 115.544 189.444 116.087 189.444 122.067V157.242C189.444 163.221 189.366 163.765 196.547 164.153V166.483H175.237Z" fill="white"/>
<path d="M212.002 155.999C212.002 158.795 212.08 160.581 212.393 162.599C215.125 162.988 218.949 162.988 222.54 162.988C226.599 162.988 230.658 162.832 234.561 161.668C234.951 160.503 235.341 159.105 235.419 157.785L236.122 153.592H238.62C238.307 155.223 237.839 157.319 237.839 159.804V166.171C235.107 166.56 230.033 166.482 225.428 166.56C221.057 166.327 216.53 166.171 212.002 166.171C207.475 166.171 203.026 166.327 198.498 166.56V164.23C202.245 164.075 204.899 162.444 204.899 157.319V122.144C204.899 116.165 204.977 115.621 197.796 115.233V112.903C202.323 113.136 206.85 113.292 211.456 113.292C216.061 113.292 220.667 113.136 225.116 112.903C229.799 112.981 234.951 112.903 237.527 113.292C236.668 115.854 236.434 118.261 236.356 120.746C236.356 122.377 236.122 123.697 236.122 125.25H233.78C233.702 122.299 233.234 120.125 232.765 117.718C229.175 116.553 225.35 116.398 221.603 116.398C218.325 116.398 214.812 116.398 212.314 116.786C212.002 118.727 211.924 120.435 211.924 123.153V137.518C228.238 137.674 229.253 138.606 229.331 131.073H231.829V148.778H229.331C229.331 140.159 228.784 140.547 211.924 141.168V155.999H212.002Z" fill="white"/>
<path d="M245.333 122.144C245.333 116.165 245.411 115.621 238.229 115.233V112.903C242.445 113.136 246.738 113.292 251.187 113.292C255.636 113.292 259.929 113.136 264.3 112.903C274.604 112.36 279.365 118.106 279.365 124.551C279.365 132.937 272.028 137.907 264.769 139.304L281.707 161.978C282.878 163.454 284.439 163.92 286 164.153V166.482C284.361 166.249 282.644 166.094 280.927 166.094C279.209 166.094 277.57 166.249 275.853 166.482C274.682 164.851 273.823 163.454 272.809 162.211L255.012 138.761L255.324 137.596C257.666 137.751 259.929 137.674 262.193 137.286C267.423 136.354 271.95 132.238 271.95 126.57C271.95 118.261 265.94 115.854 260.476 115.854C257.822 115.854 255.012 116.242 252.982 116.864C252.514 118.184 252.514 119.814 252.514 122.144V157.319C252.514 163.298 252.436 163.842 259.617 164.23V166.56C256.026 166.327 252.514 166.171 248.845 166.171C245.177 166.171 241.664 166.327 238.308 166.56V164.23C245.489 163.842 245.411 163.298 245.411 157.319V122.144H245.333Z" fill="white"/>
</g>
<defs>
<clipPath id="clip0">
<rect width="286" height="209.733" fill="white"/>
</clipPath>
</defs>
</svg>
